{"accessors":[{"bufferView":0,"componentType":5125,"count":17490,"type":"SCALAR"},{"bufferView":1,"componentType":5126,"count":17329,"max":[19.6299095153809,7.51243877410889,17],"min":[0,0.51243782043457,-9.5367431640625e-7],"type":"VEC3"},{"bufferView":2,"componentType":5126,"count":17329,"type":"VEC3"},{"bufferView":3,"componentType":5126,"count":17329,"type":"VEC2"}],"asset":{"generator":"Substance Painter 6.2.2","version":"2.0"},"bufferViews":[{"buffer":0,"byteLength":69960,"target":34963},{"buffer":0,"byteLength":207948,"byteOffset":69960,"target":34962},{"buffer":0,"byteLength":207948,"byteOffset":277908,"target":34962},{"buffer":0,"byteLength":138632,"byteOffset":485856,"target":34962}],"buffers":[{"byteLength":624488,"uri":"data:application/octet-stream;base64,"}],"images":[{"uri":"data:application/octet-stream;base64,"},{"uri":"data:application/octet-stream;base64,"},{"uri":"data:application/octet-stream;base64,"}],"materials":[{"alphaMode":"OPAQUE","name":"Material.001","normalTexture":{"index":2},"occlusionTexture":{"index":1},"pbrMetallicRoughness":{"baseColorTexture":{"index":0},"metallicRoughnessTexture":{"index":1}}}],"meshes":[{"name":"Practica11-parte2 (1)","primitives":[{"attributes":{"NORMAL":2,"POSITION":1,"TEXCOORD_0":3},"indices":0,"material":0,"mode":4}]}],"nodes":[{"children":[1],"name":"RootNode"},{"children":[2],"name":"Practica11-parte2 (1)","rotation":[-0.707106828689575,0,0,0.707106709480286],"scale":[100,100,100]},{"mesh":0,"name":"Practica11-parte2 (1)"}],"samplers":[{"magFilter":9729,"minFilter":9985,"wrapS":10497,"wrapT":10497}],"scene":0,"scenes":[{"name":"Scene","nodes":[0]}],"textures":[{"sampler":0,"source":0},{"sampler":0,"source":1},{"sampler":0,"source":2}]}